<?xml version="1.0" encoding="UTF-8"?>
<svg width="247px" height="59px" viewBox="0 0 247 59" version="1.1" xmlns="http://www.w3.org/2000/svg" xmlns:xlink="http://www.w3.org/1999/xlink">
    <title>编组 4备份</title>
    <defs>
        <path d="M18.0519883,28.4919665 L10.9572764,32.2218772 C10.0773561,32.6844787 8.98902726,32.346175 8.52642581,31.4662547 C8.34221548,31.1158659 8.27864907,30.7145233 8.34556738,30.3243596 L9.70053679,22.4242818 C9.7839937,21.9376907 9.62267097,21.4411904 9.26914184,21.0965846 L3.52939933,15.5017185 C2.81752889,14.8078163 2.80296274,13.6682124 3.49686492,12.956342 C3.77318041,12.6728714 4.13523675,12.4883945 4.5269834,12.4314704 L12.4591125,11.2788646 C12.9476777,11.2078719 13.3700261,10.9010178 13.5885191,10.4583026 L17.1358751,3.27057435 C17.5758352,2.37911776 18.6551617,2.01310757 19.5466183,2.45306769 C19.901601,2.62826212 20.1889305,2.91559166 20.3641249,3.27057435 L23.9114809,10.4583026 C24.1299739,10.9010178 24.5523223,11.2078719 25.0408875,11.2788646 L32.9730166,12.4314704 C33.9567973,12.5744221 34.638424,13.4878192 34.4954723,14.4716 C34.4385481,14.8633466 34.2540712,15.225403 33.9706007,15.5017185 L28.2308582,21.0965846 C27.877329,21.4411904 27.7160063,21.9376907 27.7994632,22.4242818 L29.1544326,30.3243596 C29.3224824,31.3041652 28.6644243,32.2346859 27.6846187,32.4027357 C27.294455,32.469654 26.8931125,32.4060876 26.5427236,32.2218772 L19.4480117,28.4919665 C19.0110257,28.2622293 18.4889743,28.2622293 18.0519883,28.4919665 Z" id="path-1"></path>
    </defs>
    <g id="视觉组件" stroke="none" stroke-width="1" fill="none" fill-rule="evenodd">
        <g id="开发素材" transform="translate(-658.000000, -369.000000)">
            <g id="编组-4备份" transform="translate(658.000000, 369.000000)">
                <text id="4.5" font-family="PingFangSC-Semibold, PingFang SC" font-size="42" font-weight="500" fill="#FF5900">
                    <tspan x="0" y="45">4.5</tspan>
                </text>
                <path d="M88.5519883,40.4919665 L81.4572764,44.2218772 C80.5773561,44.6844787 79.4890273,44.346175 79.0264258,43.4662547 C78.8422155,43.1158659 78.7786491,42.7145233 78.8455674,42.3243596 L80.2005368,34.4242818 C80.2839937,33.9376907 80.122671,33.4411904 79.7691418,33.0965846 L74.0293993,27.5017185 C73.3175289,26.8078163 73.3029627,25.6682124 73.9968649,24.956342 C74.2731804,24.6728714 74.6352367,24.4883945 75.0269834,24.4314704 L82.9591125,23.2788646 C83.4476777,23.2078719 83.8700261,22.9010178 84.0885191,22.4583026 L87.6358751,15.2705744 C88.0758352,14.3791178 89.1551617,14.0131076 90.0466183,14.4530677 C90.401601,14.6282621 90.6889305,14.9155917 90.8641249,15.2705744 L94.4114809,22.4583026 C94.6299739,22.9010178 95.0523223,23.2078719 95.5408875,23.2788646 L103.473017,24.4314704 C104.456797,24.5744221 105.138424,25.4878192 104.995472,26.4716 C104.938548,26.8633466 104.754071,27.225403 104.470601,27.5017185 L98.7308582,33.0965846 C98.377329,33.4411904 98.2160063,33.9376907 98.2994632,34.4242818 L99.6544326,42.3243596 C99.8224824,43.3041652 99.1644243,44.2346859 98.1846187,44.4027357 C97.794455,44.469654 97.3931125,44.4060876 97.0427236,44.2218772 L89.9480117,40.4919665 C89.5110257,40.2622293 88.9889743,40.2622293 88.5519883,40.4919665 Z" id="Star-Copy备份" fill="#FF5900"></path>
                <path d="M123.051988,40.4919665 L115.957276,44.2218772 C115.077356,44.6844787 113.989027,44.346175 113.526426,43.4662547 C113.342215,43.1158659 113.278649,42.7145233 113.345567,42.3243596 L114.700537,34.4242818 C114.783994,33.9376907 114.622671,33.4411904 114.269142,33.0965846 L108.529399,27.5017185 C107.817529,26.8078163 107.802963,25.6682124 108.496865,24.956342 C108.77318,24.6728714 109.135237,24.4883945 109.526983,24.4314704 L117.459112,23.2788646 C117.947678,23.2078719 118.370026,22.9010178 118.588519,22.4583026 L122.135875,15.2705744 C122.575835,14.3791178 123.655162,14.0131076 124.546618,14.4530677 C124.901601,14.6282621 125.188931,14.9155917 125.364125,15.2705744 L128.911481,22.4583026 C129.129974,22.9010178 129.552322,23.2078719 130.040888,23.2788646 L137.973017,24.4314704 C138.956797,24.5744221 139.638424,25.4878192 139.495472,26.4716 C139.438548,26.8633466 139.254071,27.225403 138.970601,27.5017185 L133.230858,33.0965846 C132.877329,33.4411904 132.716006,33.9376907 132.799463,34.4242818 L134.154433,42.3243596 C134.322482,43.3041652 133.664424,44.2346859 132.684619,44.4027357 C132.294455,44.469654 131.893112,44.4060876 131.542724,44.2218772 L124.448012,40.4919665 C124.011026,40.2622293 123.488974,40.2622293 123.051988,40.4919665 Z" id="Star-Copy备份-2" fill="#FF5900"></path>
                <path d="M157.551988,40.4919665 L150.457276,44.2218772 C149.577356,44.6844787 148.489027,44.346175 148.026426,43.4662547 C147.842215,43.1158659 147.778649,42.7145233 147.845567,42.3243596 L149.200537,34.4242818 C149.283994,33.9376907 149.122671,33.4411904 148.769142,33.0965846 L143.029399,27.5017185 C142.317529,26.8078163 142.302963,25.6682124 142.996865,24.956342 C143.27318,24.6728714 143.635237,24.4883945 144.026983,24.4314704 L151.959112,23.2788646 C152.447678,23.2078719 152.870026,22.9010178 153.088519,22.4583026 L156.635875,15.2705744 C157.075835,14.3791178 158.155162,14.0131076 159.046618,14.4530677 C159.401601,14.6282621 159.688931,14.9155917 159.864125,15.2705744 L163.411481,22.4583026 C163.629974,22.9010178 164.052322,23.2078719 164.540888,23.2788646 L172.473017,24.4314704 C173.456797,24.5744221 174.138424,25.4878192 173.995472,26.4716 C173.938548,26.8633466 173.754071,27.225403 173.470601,27.5017185 L167.730858,33.0965846 C167.377329,33.4411904 167.216006,33.9376907 167.299463,34.4242818 L168.654433,42.3243596 C168.822482,43.3041652 168.164424,44.2346859 167.184619,44.4027357 C166.794455,44.469654 166.393112,44.4060876 166.042724,44.2218772 L158.948012,40.4919665 C158.511026,40.2622293 157.988974,40.2622293 157.551988,40.4919665 Z" id="Star-Copy备份-3" fill="#FF5900"></path>
                <path d="M192.051988,40.4919665 L184.957276,44.2218772 C184.077356,44.6844787 182.989027,44.346175 182.526426,43.4662547 C182.342215,43.1158659 182.278649,42.7145233 182.345567,42.3243596 L183.700537,34.4242818 C183.783994,33.9376907 183.622671,33.4411904 183.269142,33.0965846 L177.529399,27.5017185 C176.817529,26.8078163 176.802963,25.6682124 177.496865,24.956342 C177.77318,24.6728714 178.135237,24.4883945 178.526983,24.4314704 L186.459112,23.2788646 C186.947678,23.2078719 187.370026,22.9010178 187.588519,22.4583026 L191.135875,15.2705744 C191.575835,14.3791178 192.655162,14.0131076 193.546618,14.4530677 C193.901601,14.6282621 194.188931,14.9155917 194.364125,15.2705744 L197.911481,22.4583026 C198.129974,22.9010178 198.552322,23.2078719 199.040888,23.2788646 L206.973017,24.4314704 C207.956797,24.5744221 208.638424,25.4878192 208.495472,26.4716 C208.438548,26.8633466 208.254071,27.225403 207.970601,27.5017185 L202.230858,33.0965846 C201.877329,33.4411904 201.716006,33.9376907 201.799463,34.4242818 L203.154433,42.3243596 C203.322482,43.3041652 202.664424,44.2346859 201.684619,44.4027357 C201.294455,44.469654 200.893112,44.4060876 200.542724,44.2218772 L193.448012,40.4919665 C193.011026,40.2622293 192.488974,40.2622293 192.051988,40.4919665 Z" id="Star-Copy备份-4" fill="#FF5900"></path>
                <g id="矩形" transform="translate(208.500000, 12.000000)">
                    <mask id="mask-2" fill="white">
                        <use xlink:href="#path-1"></use>
                    </mask>
                    <use id="蒙版" fill="#D9D9D9" xlink:href="#path-1"></use>
                    <rect fill="#FF5900" mask="url(#mask-2)" x="3.125" y="1.3125" width="16.5" height="31.5"></rect>
                </g>
            </g>
        </g>
    </g>
</svg>